<svg width="1032" height="519" viewBox="0 0 1032 519" fill="none" xmlns="http://www.w3.org/2000/svg">
<rect width="1032" height="519" fill="white"/>
<ellipse cx="496" cy="241.5" rx="155" ry="147.5" fill="#924ACB"/>
<path d="M475.5 202.5C475.5 220.114 459.221 234.5 439 234.5C418.779 234.5 402.5 220.114 402.5 202.5C402.5 184.886 418.779 170.5 439 170.5C459.221 170.5 475.5 184.886 475.5 202.5Z" fill="#F3A531" stroke="black"/>
<path d="M579.5 202.5C579.5 220.114 563.221 234.5 543 234.5C522.779 234.5 506.5 220.114 506.5 202.5C506.5 184.886 522.779 170.5 543 170.5C563.221 170.5 579.5 184.886 579.5 202.5Z" fill="#F3A531" stroke="black"/>
<ellipse cx="425" cy="207.5" rx="14" ry="13.5" fill="#62C1C7"/>
<ellipse cx="529" cy="207.5" rx="14" ry="13.5" fill="#62C1C7"/>
<path d="M556.5 305H391C402.333 327 444.4 371 522 371C591.6 368.6 574 326 556.5 305Z" fill="#EB5A5A" stroke="black" stroke-width="2"/>
</svg>
